<svg
  class="icon icon-stars"
  aria-hidden="true"
  focusable="false"
  xmlns="http://www.w3.org/2000/svg" 
  viewBox="0 0 101 17"
>
<path d="M18.2513 6.41893C18.4625 6.93689 18.2513 7.56583 17.829 7.9728L14.5847 10.988L15.3334 15.2427C15.4486 15.6496 15.3334 16.1676 15.007 16.482C14.6807 16.7965 14.2584 17 13.8168 17C13.6057 17 13.2793 16.889 13.0682 16.7965L9.11363 14.8172L5.23587 16.778C4.58318 17.0925 3.73852 16.9815 3.29699 16.3711C2.97065 16.0566 2.87466 15.5386 2.97065 15.1317L3.71932 10.877L0.513455 7.8803C0.0911253 7.47334 -0.139236 6.8444 0.0911253 6.32644C0.30229 5.80849 0.839801 5.40152 1.37731 5.29053L5.79258 4.66159L7.71226 0.832426C8.0386 0.314472 8.57611 0 9.11363 0C9.76632 0 10.3038 0.314472 10.515 0.832426L12.4539 4.66159L16.8691 5.29053C17.5986 5.38303 18.1361 5.80849 18.2513 6.41893Z" fill="#4C5951"/>
<path d="M59.6396 6.41893C59.8508 6.93689 59.6396 7.56583 59.2173 7.9728L55.9922 10.9695L56.7409 15.2242C56.8561 15.6311 56.7409 16.1491 56.4145 16.4635C56.0882 16.778 55.6658 16.9815 55.1283 16.9815C54.9172 16.9815 54.5908 16.8705 54.3797 16.778L50.5019 14.8172L46.5282 16.778C45.8755 17.0925 45.0308 16.9815 44.5893 16.3711C44.2629 16.0566 44.167 15.5386 44.2629 15.1317L45.0116 10.877L41.7866 7.8803C41.3642 7.47334 41.1339 6.8444 41.3642 6.32644C41.5754 5.80849 42.0169 5.40152 42.6504 5.29053L47.0657 4.66159L49.0046 0.832427C49.3309 0.314472 49.8684 0 50.4059 0C51.0586 0 51.5961 0.314472 51.8073 0.832427L53.7462 4.66159L58.1614 5.29053C58.8909 5.38303 59.4284 5.80849 59.6396 6.41893Z" fill="#4C5951"/>
<path d="M39.003 6.41893C39.2142 6.93689 39.003 7.56583 38.5807 7.9728L35.3556 10.9695L36.1043 15.2242C36.2195 15.6311 35.9891 16.1491 35.7779 16.4635C35.4516 16.778 35.0293 16.9815 34.5877 16.9815C34.3766 16.9815 34.0502 16.8705 33.8391 16.778L29.8653 14.8172L25.8916 16.778C25.2389 17.0925 24.3942 16.9815 23.9527 16.3711C23.6264 16.0566 23.5304 15.5386 23.6264 15.1317L24.375 10.877L21.15 7.8803C20.7276 7.47334 20.4973 6.8444 20.7276 6.32644C20.9388 5.80849 21.3803 5.40152 22.0138 5.29053L26.4291 4.66159L28.368 0.832427C28.5791 0.314472 29.2318 0 29.7693 0C30.3069 0 30.9595 0.314472 31.1707 0.832427L33.1096 4.66159L37.5249 5.29053C38.2351 5.38303 38.7727 5.80849 39.003 6.41893Z" fill="#4C5951"/>
<path d="M80.2762 6.41893C80.4873 6.93689 80.2762 7.56583 79.8538 7.9728L76.6288 10.9695L77.3774 15.2242C77.4926 15.6311 77.3774 16.1491 77.0511 16.4635C76.7247 16.778 76.3024 16.9815 75.7649 16.9815C75.5537 16.9815 75.2274 16.8705 75.0162 16.778L71.0233 14.8172L67.2607 16.778C66.608 17.0925 65.7634 16.9815 65.3218 16.3711C64.9955 16.0566 64.8995 15.5386 64.9955 15.1317L65.7442 10.877L62.5191 7.8803C62.0968 7.47334 61.8664 6.8444 62.0968 6.32644C62.3079 5.80849 62.7495 5.40152 63.383 5.29053L67.7982 4.66159L69.7371 0.832427C69.9483 0.314472 70.601 0 71.1385 0C71.7912 0 72.3287 0.314472 72.5398 0.832427L74.4787 4.66159L78.894 5.29053C79.6235 5.38303 80.065 5.80849 80.2762 6.41893Z" fill="#4C5951"/>
<path d="M100.586 7.9728L97.3613 10.9695L98.11 15.2242C98.2252 15.6311 98.11 16.1491 97.7837 16.4635C97.4573 16.778 97.035 16.9815 96.4975 16.9815C96.2863 16.9815 95.96 16.8705 95.7488 16.778L91.775 14.8172L87.9165 16.778C87.2638 17.0925 86.4191 16.9815 85.9776 16.3711C85.6513 16.0566 85.5553 15.5386 85.6513 15.1317L86.3999 10.877L83.1749 7.8803C82.7525 7.47334 82.5222 6.8444 82.7525 6.32644C82.9637 5.80849 83.4052 5.40152 84.0387 5.29053L88.454 4.66159L90.3929 0.832427C90.604 0.314472 91.2567 0 91.7942 0C92.4469 0 92.9845 0.314472 93.1956 0.832427L95.1345 4.66159L99.5498 5.29053C100.202 5.40152 100.625 5.80849 100.836 6.32644C101.124 6.93689 101.028 7.56583 100.586 7.9728Z" fill="#4C5951"/>
</svg>
