<svg
  class="icon icon-stars"
  aria-hidden="true"
  focusable="false"
  xmlns="http://www.w3.org/2000/svg"
  viewBox="0 0 213 35"
>
<path d="M38.4904 13.2155C38.9357 14.2818 38.4904 15.5767 37.5997 16.4146L30.7579 22.6224L32.3368 31.3819C32.5797 32.2198 32.3368 33.2862 31.6485 33.9336C30.9603 34.5811 30.0696 35 29.1385 35C28.6932 35 28.0049 34.7715 27.5596 34.5811L19.2198 30.506L11.042 34.543C9.66552 35.1904 7.8842 34.9619 6.95306 33.7051C6.26483 33.0577 6.06241 31.9913 6.26483 31.1534L7.84372 22.3939L1.08283 16.2242C0.192175 15.3863 -0.293637 14.0914 0.192175 13.025C0.637503 11.9587 1.77107 11.1208 2.90463 10.8923L12.216 9.59739L16.2645 1.71382C16.9527 0.647443 18.0863 0 19.2198 0C20.5963 0 21.7299 0.647443 22.1752 1.71382L26.2641 9.59739L35.5755 10.8923C37.1139 11.0827 38.2475 11.9587 38.4904 13.2155Z" fill="#fff"/>
<path d="M125.775 13.2155C126.22 14.2818 125.775 15.5767 124.884 16.4146L118.083 22.5843L119.661 31.3439C119.904 32.1817 119.661 33.2481 118.973 33.8955C118.285 34.543 117.394 34.9619 116.261 34.9619C115.815 34.9619 115.127 34.7334 114.682 34.543L106.504 30.506L98.1237 34.543C96.7473 35.1904 94.966 34.9619 94.0348 33.7051C93.3466 33.0577 93.1442 31.9913 93.3466 31.1534L94.9255 22.3939L88.1241 16.2242C87.2335 15.3863 86.7476 14.0914 87.2335 13.025C87.6788 11.9587 88.6099 11.1208 89.9459 10.8923L99.2573 9.59739L103.346 1.71382C104.034 0.647443 105.168 0 106.302 0C107.678 0 108.812 0.647443 109.257 1.71382L113.346 9.59739L122.657 10.8923C124.196 11.0827 125.329 11.9587 125.775 13.2155Z" fill="#fff"/>
<path d="M82.2539 13.2155C82.6992 14.2818 82.2539 15.5767 81.3632 16.4146L74.5619 22.5843L76.1407 31.3439C76.3837 32.1817 75.8978 33.2481 75.4525 33.8955C74.7643 34.543 73.8736 34.9619 72.9425 34.9619C72.4971 34.9619 71.8089 34.7334 71.3636 34.543L62.9833 30.506L54.6031 34.543C53.2266 35.1904 51.4453 34.9619 50.5141 33.7051C49.8259 33.0577 49.6235 31.9913 49.8259 31.1534L51.4048 22.3939L44.6034 16.2242C43.7128 15.3863 43.227 14.0914 43.7128 13.025C44.1581 11.9587 45.0892 11.1208 46.4252 10.8923L55.7366 9.59739L59.8255 1.71382C60.2709 0.647443 61.6473 0 62.7809 0C63.9145 0 65.2909 0.647443 65.7363 1.71382L69.8252 9.59739L79.1366 10.8923C80.6345 11.0827 81.7681 11.9587 82.2539 13.2155Z" fill="#fff"/>
<path d="M169.295 13.2155C169.741 14.2818 169.295 15.5767 168.405 16.4146L161.603 22.5843L163.182 31.3439C163.425 32.1817 163.182 33.2481 162.494 33.8955C161.806 34.543 160.915 34.9619 159.781 34.9619C159.336 34.9619 158.648 34.7334 158.203 34.543L149.782 30.506L141.847 34.543C140.47 35.1904 138.689 34.9619 137.758 33.7051C137.07 33.0577 136.867 31.9913 137.07 31.1534L138.649 22.3939L131.847 16.2242C130.957 15.3863 130.471 14.0914 130.957 13.025C131.402 11.9587 132.333 11.1208 133.669 10.8923L142.98 9.59739L147.069 1.71382C147.515 0.647443 148.891 0 150.025 0C151.401 0 152.535 0.647443 152.98 1.71382L157.069 9.59739L166.38 10.8923C167.919 11.0827 168.85 11.9587 169.295 13.2155Z" fill="#fff"/>
<path d="M212.128 16.4146L205.326 22.5843L206.905 31.3439C207.148 32.1817 206.905 33.2481 206.217 33.8955C205.529 34.543 204.638 34.9619 203.505 34.9619C203.059 34.9619 202.371 34.7334 201.926 34.543L193.545 30.506L185.408 34.543C184.032 35.1904 182.25 34.9619 181.319 33.7051C180.631 33.0577 180.428 31.9913 180.631 31.1534L182.21 22.3939L175.408 16.2242C174.518 15.3863 174.032 14.0914 174.518 13.025C174.963 11.9587 175.894 11.1208 177.23 10.8923L186.542 9.59739L190.631 1.71382C191.076 0.647443 192.452 0 193.586 0C194.962 0 196.096 0.647443 196.541 1.71382L200.63 9.59739L209.942 10.8923C211.318 11.1208 212.209 11.9587 212.654 13.025C213.261 14.2818 213.059 15.5767 212.128 16.4146Z" fill="#fff"/>
</svg>
